<svg width="1650" height="255" xmlns="http://www.w3.org/2000/svg" xmlns:xlink="http://www.w3.org/1999/xlink"><defs><radialGradient cx="50.396%" cy="0%" fx="50.396%" fy="0%" r="40.091%" id="a"><stop stop-color="#143356" offset="0%"/><stop stop-color="#08203A" offset="100%"/></radialGradient><linearGradient x1="50.366%" y1="150.146%" x2="50.342%" y2="32.771%" id="b"><stop stop-color="#324B69" offset="0%"/><stop stop-color="#132E4D" offset="100%"/></linearGradient><path id="c" d="M0 .043h1262l-66.848 123.914H0z"/><radialGradient cx="51.92%" cy="-18.884%" fx="51.92%" fy="-18.884%" r="66.37%" id="f"><stop stop-color="#324C69" offset="0%"/><stop stop-color="#0A203B" stop-opacity="0" offset="100%"/></radialGradient><linearGradient x1="50.391%" y1="100%" x2="50.36%" y2="23.183%" id="e"><stop stop-color="#FFF" stop-opacity=".25" offset="0%"/><stop stop-color="#FFF" stop-opacity="0" offset="100%"/></linearGradient><path id="g" d="M0 0h1382v4H0z"/><radialGradient cx="55.249%" cy="100%" fx="55.249%" fy="100%" r="151.665%" id="i"><stop stop-color="#203E61" offset="0%"/><stop stop-color="#203E61" stop-opacity="0" offset="100%"/></radialGradient></defs><g fill="none" fill-rule="evenodd"><path fill="url(#a)" d="M0 170h1650v85H0z"/><path fill="#091420" d="M0 47h445.83l-64.76 120H0z"/><g transform="rotate(180 825 89)"><path fill="url(#b)" d="M0 .043h1262l-66.848 123.914H0z"/><mask id="d" fill="#fff"><use xlink:href="#c"/></mask><g mask="url(#d)" stroke-width="2" stroke="url(#e)" fill="url(#f)"><path d="M-.48.043h1262l-66.849 123.914H-.48z"/></g></g><path fill="#091420" d="M0 0h1650v48H0z"/><g transform="translate(266 176)"><mask id="h" fill="#fff"><use xlink:href="#g"/></mask><path stroke="#19385B" stroke-width="2" fill="#091420" mask="url(#h)" d="M0 0h1382v4H0z"/></g><path fill="url(#i)" d="M0 175h1650v80H0z"/></g></svg>